<?xml version="1.0" encoding="utf-8"?>
<!-- Generator: Adobe Illustrator 21.0.0, SVG Export Plug-In . SVG Version: 6.00 Build 0)  -->
<svg version="1.1" id="Layer_1" xmlns="http://www.w3.org/2000/svg" xmlns:xlink="http://www.w3.org/1999/xlink" x="0px" y="0px"
	 viewBox="0 0 194 194" style="enable-background:new 0 0 194 194;" xml:space="preserve">
<style type="text/css">
	.st0{fill:#004481;}
	.st1{fill:#FFFFFF;}
	.st2{fill:#5BBEFF;}
	.st3{fill:#2A86CA;}
</style>
<title>mobile-pay</title>
<path class="st0" d="M69.3,51.4h55.5c2.9,0,5.3,2.4,5.3,5.3v80.6c0,2.9-2.4,5.3-5.3,5.3H69.3c-2.9,0-5.3-2.4-5.3-5.3V56.7
	C64,53.8,66.4,51.4,69.3,51.4z"/>
<polygon class="st1" points="122.2,126.9 71.9,126.9 71.9,60.9 121.8,60.9 "/>
<rect x="79.6" y="70.4" class="st2" width="34.9" height="46.3"/>
<polygon class="st3" points="114.5,116.8 79.6,116.8 114.5,70.4 "/>
<circle class="st1" cx="97.1" cy="134.3" r="4"/>
<path class="st1" d="M96.8,103.1c-2.8-0.1-5.5-0.9-7.9-2.4l-0.8,4.7c1.9,0.9,4,1.5,6.2,1.7v2.9l5.5,2.7V107c3.7-0.9,6.2-3.4,6.2-7.6
	c0-4.2-2.1-6.1-7.7-8.3c-3.8-1.5-4.7-2.4-4.7-4.1s1.2-2.9,3.8-2.9c2.3,0.1,4.5,0.8,6.5,2.1l0.8-4.7c-1.5-0.8-3.1-1.3-4.8-1.5v-2.9
	l-5.5-2.7v5.9c-3.5,0.9-5.8,3.4-5.8,7.1c0,4.2,2.1,5.9,7.5,8c4,1.7,4.9,2.5,4.9,4.5C100.9,102,99.2,103.1,96.8,103.1z"/>
</svg>
