<?xml version="1.0" encoding="UTF-8"?>
<svg width="160px" height="160px" viewBox="0 0 160 160" version="1.1" xmlns="http://www.w3.org/2000/svg" xmlns:xlink="http://www.w3.org/1999/xlink">
    <!-- Generator: Sketch 46.2 (44496) - http://www.bohemiancoding.com/sketch -->
    <title>Valora</title>
    <desc>Created with Sketch.</desc>
    <defs>
        <path d="M16.2505721,0.243264205 C12.4108615,0.243264205 9.20524257,3.01187216 8.41050612,6.71682955 C7.57818488,6.14942045 6.57733829,5.81532102 5.50495935,5.81034375 C2.57334572,5.8035 0.186105332,8.24485227 0.179437063,11.2697898 C0.177012238,12.5165966 0.586201486,13.6800341 1.27303322,14.6008295 L9.68596416,14.6288267 L22.6636285,14.6630455 L30.2660616,14.6817102 C30.7358715,13.9562727 31.0026023,13.0871165 31.0074519,12.1501449 C31.0123016,9.57253977 28.9881788,7.47773011 26.4803033,7.46777557 C25.6788986,7.46342045 24.9199283,7.68553125 24.2634069,8.0588267 C24.0439602,3.71553409 20.5516058,0.254463068 16.2717893,0.243264205 C16.2645149,0.243264205 16.2572404,0.243264205 16.2505721,0.243264205 Z" id="path-1"></path>
        <path d="M19.5031576,0.597101097 C14.9097876,0.596500392 11.0654564,3.76642241 10.1120231,8.0140098 C9.11575261,7.36224451 7.91631148,6.98319945 6.63486773,6.98319945 C3.11854694,6.96758111 0.264366617,9.76566654 0.250903502,13.2275313 C0.250903502,14.6656199 0.742919151,15.9895745 1.56600503,17.0486179 L11.6413105,17.0792539 L27.1844765,17.1201019 L36.2977813,17.1399252 C36.8540527,16.3061462 37.1777794,15.3101767 37.1826751,14.2427234 C37.1869588,11.2884545 34.766046,8.88923746 31.7656073,8.87782406 C30.8029946,8.87301842 29.8954583,9.12651607 29.1023584,9.55602038 C28.8373798,4.57256897 24.6558588,0.609115204 19.5300838,0.597101097 C19.5215164,0.597101097 19.511725,0.597101097 19.5031576,0.597101097 Z" id="path-3"></path>
        <path d="M0.262373377,16.5649669 C0.262373377,25.658595 7.6841388,33.0273719 16.837447,33.0273719 C25.9907553,33.0273719 33.4064472,25.658595 33.4064472,16.5649669 C33.4064472,7.47495868 25.9907553,0.0995454545 16.837447,0.0995454545 C7.6841388,0.0995454545 0.262373377,7.47495868 0.262373377,16.5649669 Z" id="path-5"></path>
        <path d="M0.571933884,22.9684931 C3.14080992,24.6113211 6.20138017,25.5652019 9.48577686,25.5652019 C18.5806116,25.5652019 25.9463719,18.2582955 25.9463719,9.24397225 C25.9463719,5.9888166 24.9847025,2.95493737 23.3274215,0.407866279 L0.571933884,22.9684931 Z" id="path-7"></path>
        <polygon id="path-9" points="9.54128099 22.0055785 9.54128099 22.0188512 0.594859504 29.7966694 0.594859504 33.2674876 9.54128099 33.2674876 9.54128099 66.1325702 57.2350165 66.1548926 57.2350165 33.1190744 66.1766116 33.1190744 66.1766116 29.6464463 56.225686 20.9998678 56.2232727 20.9998678 33.3857355 0.372239669"></polygon>
        <polygon id="path-11" points="0.491047249 44.9485466 0.491047249 47.6465078 48.1220279 47.6465078 48.1220279 14.5534614 57.0518577 14.5534614 57.0518577 11.0478654 47.1140254 2.31919908 47.1116153 2.31919908 44.7751577 0.186058015 0.491047249 44.9485466"></polygon>
        <path d="M9.27582645,22.0055785 L9.27582645,22.0188512 L0.331214876,29.7966694 L0.331214876,33.2674876 L9.27582645,33.2674876 L33.7718512,11.5333967 L56.9665455,33.1190744 L65.9123636,33.1190744 L65.9123636,29.6464463 L55.9572149,20.9998678 L33.1239008,0.372239669 L9.27582645,22.0055785 Z M25.6706612,66.1392066 L40.5711074,66.1392066 L40.5711074,42.2181322 L25.6706612,42.2181322 L25.6706612,66.1392066 Z" id="path-13"></path>
        <polygon id="path-15" points="0.399469044 25.4007397 16.8383711 25.4007397 16.8383711 0.144726744 0.399469044 0.144726744"></polygon>
        <path d="M3.17377946,6.13500353 L0.591127946,6.13500353 L0.591127946,8.07347962 L2.96362795,8.07347962 L2.96362795,8.66157014 C2.96362795,8.97573903 2.96362795,9.29291144 2.98820707,9.60828174 L0.591127946,9.60828174 L0.591127946,11.5719875 L3.23829966,11.5719875 C4.07153199,15.5822962 6.72423401,17.3405607 10.0442593,17.3405607 C13.2751852,17.3405607 15.302963,15.562473 16.269537,12.492268 L13.0668771,11.4590549 C12.4419529,13.5771418 11.5417424,14.5448781 10.0651515,14.5448781 C8.20082492,14.5448781 7.25145623,13.4413824 6.83729798,11.5719875 L10.4817677,11.5719875 L10.4817677,9.60828174 L6.60871212,9.60828174 C6.58536195,9.29291144 6.58536195,8.97573903 6.58536195,8.63814263 L6.58536195,8.07347962 L10.4817677,8.07347962 L10.4817677,6.13500353 L6.81824916,6.13500353 C7.23056397,4.04034404 8.29299663,2.88999334 10.0196801,2.88999334 C11.7039646,2.88999334 12.3731313,3.83430212 12.9040404,5.48023472 L15.9739731,4.08719906 C15.1634764,1.62731074 13.4582997,0.0270317398 9.95024411,0.0270317398 C6.67630471,0.0270317398 3.92958754,1.96490713 3.17377946,6.13500353 Z" id="path-17"></path>
    </defs>
    <g id="Page-1" stroke="none" stroke-width="1" fill="none" fill-rule="evenodd">
        <g id="Valora">
            <g id="illustration-valora" transform="translate(7.000000, 7.000000)">
                <g id="icono" transform="translate(0.000000, 8.295455)">
                    <path d="M123.602273,66.7768958 C123.602273,95.4118432 100.392811,118.625 71.7571951,118.625 C43.1191578,118.625 19.9090909,95.4118432 19.9090909,66.7768958 C19.9090909,38.1437644 43.1191578,14.9318182 71.7571951,14.9318182 C100.392811,14.9318182 123.602273,38.1437644 123.602273,66.7768958 Z" id="Stroke-1" stroke="#F6CB51" stroke-width="3" stroke-linecap="round" stroke-dasharray="0,6"></path>
                    <g id="Group-5" transform="translate(114.477273, 93.738636)">
                        <mask id="mask-2" fill="white">
                            <use xlink:href="#path-1"></use>
                        </mask>
                        <g id="Clip-4"></g>
                        <polygon id="Fill-3" fill="#CEEDEE" mask="url(#mask-2)" points="-10.02059 25.1545142 41.2092976 25.1545142 41.2092976 -10.2282955 -10.02059 -10.2282955"></polygon>
                    </g>
                    <g id="Group-8" transform="translate(0.000000, 54.750000)">
                        <mask id="mask-4" fill="white">
                            <use xlink:href="#path-3"></use>
                        </mask>
                        <g id="Clip-7"></g>
                        <polygon id="Fill-6" fill="#CEEDEE" mask="url(#mask-4)" points="-10.0483793 27.2552022 47.4837938 27.2552022 47.4837938 -9.5133703 -10.0483793 -9.5133703"></polygon>
                    </g>
                    <g id="Group-11" transform="translate(54.750000, 0.000000)">
                        <mask id="mask-6" fill="white">
                            <use xlink:href="#path-5"></use>
                        </mask>
                        <g id="Clip-10"></g>
                        <polygon id="Fill-9" fill="#F6CB51" mask="url(#mask-6)" points="-9.96107812 43.1816116 43.6298987 43.1816116 43.6298987 -10.0552975 -9.96107812 -10.0552975"></polygon>
                    </g>
                    <g id="Group-14" transform="translate(61.386364, 7.465909)">
                        <mask id="mask-8" fill="white">
                            <use xlink:href="#path-7"></use>
                        </mask>
                        <g id="Clip-13"></g>
                        <polygon id="Fill-12" fill="#E8B442" mask="url(#mask-8)" points="-17.3794298 50.1531993 51.4752562 50.1531993 51.4752562 -18.1010098 -17.3794298 -18.1010098"></polygon>
                    </g>
                    <g id="Group-20" transform="translate(38.159091, 62.215909)">
                        <mask id="mask-10" fill="white">
                            <use xlink:href="#path-9"></use>
                        </mask>
                        <g id="Clip-19"></g>
                        <polygon id="Fill-18" fill="#67CACA" mask="url(#mask-10)" points="-9.55877686 76.3127521 76.3344711 76.3127521 76.3344711 -9.782 -9.55877686 -9.782"></polygon>
                    </g>
                    <g id="Group-23" transform="translate(47.284091, 81.295455)">
                        <mask id="mask-12" fill="white">
                            <use xlink:href="#path-11"></use>
                        </mask>
                        <g id="Clip-22"></g>
                        <polygon id="Fill-21" fill="#6C5BAA" opacity="0.200000003" mask="url(#mask-12)" points="-25.513369 84.6720826 81.8795681 84.6720826 81.8795681 -20.6133435 -25.513369 -20.6133435"></polygon>
                    </g>
                    <g id="Group-26" transform="translate(38.159091, 62.215909)">
                        <mask id="mask-14" fill="white">
                            <use xlink:href="#path-13"></use>
                        </mask>
                        <g id="Clip-25"></g>
                        <polygon id="Fill-24" fill="#2C84C8" mask="url(#mask-14)" points="-9.8242314 76.292843 76.066 76.292843 76.066 -9.782 -9.8242314 -9.782"></polygon>
                    </g>
                    <g id="Group-29" transform="translate(63.045455, 102.863636)">
                        <mask id="mask-16" fill="white">
                            <use xlink:href="#path-15"></use>
                        </mask>
                        <g id="Clip-28"></g>
                        <polygon id="Fill-27" fill="#FFFFFF" mask="url(#mask-16)" points="-1.41975274 35.4652289 35.2424949 35.4652289 35.2424949 -9.92275264 -1.41975274 -9.92275264"></polygon>
                    </g>
                    <g id="Group-32" transform="translate(63.045455, 8.295455)">
                        <mask id="mask-18" fill="white">
                            <use xlink:href="#path-17"></use>
                        </mask>
                        <g id="Clip-31"></g>
                        <polygon id="Fill-30" fill="#FFFFFF" mask="url(#mask-18)" points="-9.75238215 27.4498307 26.6130471 27.4498307 26.6130471 -10.0858425 -9.75238215 -10.0858425"></polygon>
                    </g>
                </g>
            </g>
        </g>
    </g>
</svg>