<?xml version="1.0" encoding="UTF-8"?>
<svg width="67px" height="80px" viewBox="0 0 67 80" version="1.1" xmlns="http://www.w3.org/2000/svg" xmlns:xlink="http://www.w3.org/1999/xlink">
    <defs>
        <path d="M34.9482419,0.112112524 L1.05150507,0.268537957 C0.504907628,0.279250894 0.0688871256,0.729540215 0.0741287386,1.27789904 L0.136898211,31.0815861 C0.129512844,31.6353942 0.288282867,32.1085934 0.672718415,31.7157857 L5.31026324,26.9733395 L34.9510663,27.0127723 C35.4980317,27.0070655 35.9368523,26.5577269 35.9312671,26.0090774 L35.9269228,1.11297572 C35.9299596,0.850410477 35.8288224,0.597402503 35.6457864,0.409676241 C35.4627505,0.22194998 35.212829,0.114903131 34.9510663,0.112112524 L34.9482419,0.112112524" id="path-1"></path>
    </defs>
    <g id="Page-1" stroke="none" stroke-width="1" fill="none" fill-rule="evenodd">
        <g id="inline-animation-contact-us">
            <polygon id="Shape" fill="#FFFFFF" fill-rule="nonzero" points="43.5910298 73.5680923 43.2262179 79.4634297 51.5976835 79.8319846 53.4179012 75.4107128 52.3262318 72.4628903"></polygon>
            <path d="M20.5158595,68.8343185 C18.1045618,68.8460826 17.3495931,68.2809467 16.2675278,67.7731067 C8.46067392,70.0157903 9.39678534,79.9281308 9.37854012,79.9281308 L31.7652517,79.9281308 C31.7252883,79.9281308 32.7999683,69.8972733 24.8771323,67.6550241 C24.8771323,67.6550241 22.9275921,68.8242974 20.5158595,68.8343185 M14.1998325,60.4581318 C14.1860113,62.7300036 15.3863934,64.8352564 17.3455852,65.9752133 C19.304777,67.1151697 21.7225977,67.1151697 23.6817895,65.9752133 C25.6409813,64.8352564 26.8413634,62.7300036 26.8275422,60.4581318 C26.8275422,56.8453056 24.0014023,53.9664615 20.5158656,53.9664615 C17.0285848,53.9664615 14.1998386,56.8453056 14.1998386,60.4581318" id="Shape" fill="#5BBDFF" fill-rule="nonzero"></path>
            <path d="M46.2816884,72.9260072 L52.7293365,72.9260072 L52.7293365,73.0595574 L50.3623464,75.5192292 L46.2816884,75.5192292 L46.2816884,72.9260072 Z M46.1683124,68.8343185 C43.7578844,68.8460826 43.0011793,68.2809467 41.9186776,67.7731067 C34.1131284,70.0157903 35.0501019,79.9281308 35.0305597,79.9281308 L57.4185745,79.9281308 C57.3777413,79.9281308 58.4524213,69.8972733 50.5295867,67.6550241 C50.5295867,67.6550241 48.5791768,68.8242974 46.1683124,68.8343185 Z M39.850114,60.4581318 C39.8364748,62.7301159 41.037021,64.8353949 42.9963397,65.9753544 C44.9556583,67.1153144 47.3735826,67.1153144 49.3329012,65.9753544 C51.2922198,64.8353949 52.4927662,62.7301159 52.4791268,60.4581318 C52.4791268,56.8453056 49.652987,53.9664615 46.1683124,53.9664615 C42.6819013,53.9664615 39.850114,56.8453056 39.850114,60.4581318 Z" id="Shape" fill="#5BBDFF" fill-rule="nonzero"></path>
            <g id="Clipped" transform="translate(0.000000, 18.497110)">
                <g id="Group-Clipped">
                    <mask id="mask-2" fill="white">
                        <use xlink:href="#path-1"></use>
                    </mask>
                    <g id="path-1"></g>
                    <g id="Group" mask="url(#mask-2)">
                        <g transform="translate(-1.022901, -14.871795)">
                            <g transform="translate(0.100883, 0.074107)">
                                <rect id="Rectangle-path" fill="#68CBCB" fill-rule="nonzero" x="0.0928334176" y="14.0718983" width="37.578625" height="33.5049665"></rect>
                                <path d="M22.7931741,0.120809249 L22.7870919,0.120809249 C22.462261,0.124426162 22.1521997,0.257477102 21.9252623,0.490630443 C21.6983248,0.723783785 21.5731444,1.03789589 21.5773177,1.36371946 L21.5686293,32.2700131 C21.5620803,32.9502484 22.1063404,33.5071058 22.7844856,33.5140115 L59.5772991,33.469785 L65.3390455,39.3571068 C65.813834,39.8442482 66.1930556,39.6797611 66.1856718,38.9913141 L66.1900145,1.61230366 C66.1900145,0.921899036 65.5371271,0.323861272 64.8681674,0.319509827 L22.7931741,0.120820038" id="Shape" fill="#02A4A4" fill-rule="nonzero"></path>
                            </g>
                        </g>
                    </g>
                </g>
            </g>
            <polygon id="Shape" fill="#FFFFFF" fill-rule="nonzero" points="5.0199289 29.7962235 19.6045688 29.7962235 19.6045688 29.9579191 16.7613715 32.9137572 5.0199289 32.9137572"></polygon>
            <polygon id="Shape" fill="#FFFFFF" fill-rule="nonzero" points="5.0199289 23.7202312 24.3159289 23.7202312 24.3159289 23.8802312 21.470273 26.8363776 5.0199289 26.8363776"></polygon>
            <path d="M21.2291282,0 L21.2221778,0 C20.8803085,0.00377857805 20.5539451,0.143660321 20.3149163,0.38885892 C20.0758876,0.634057518 19.9437833,0.964477482 19.947678,1.3073973 L19.9398593,33.835684 C19.9363519,34.1795908 20.0692268,34.5108012 20.3092366,34.7564117 C20.5492463,35.0020223 20.8767182,35.1419012 21.2195715,35.1452593 L59.9428133,35.0988547 L66.0055911,41.2946667 C66.506007,41.8077349 66.9060803,41.6340979 66.8982582,40.9097017 L66.9026025,1.56927784 C66.9026025,0.842922544 66.2158325,0.213732563 65.5103824,0.20894027 L21.2291282,0" id="Shape" fill="#F9DD8D" fill-rule="nonzero"></path>
            <polygon id="Shape" fill="#FFFFFF" fill-rule="nonzero" points="27.7323142 14.184817 46.785977 14.184817 46.785977 14.395684 43.0697821 18.2555684 27.7323142 18.2555684"></polygon>
            <polygon id="Shape" fill="#FFFFFF" fill-rule="nonzero" points="27.7323142 6.24631985 52.941679 6.24631985 52.941679 6.45764933 49.2254839 10.3184586 27.7323142 10.3184586"></polygon>
        </g>
    </g>
</svg>