<?xml version="1.0" encoding="utf-8"?>
<!-- Generator: Adobe Illustrator 22.1.0, SVG Export Plug-In . SVG Version: 6.00 Build 0)  -->
<svg version="1.1" id="Capa_1" xmlns="http://www.w3.org/2000/svg" xmlns:xlink="http://www.w3.org/1999/xlink" x="0px" y="0px"
	 viewBox="0 0 160 160" style="enable-background:new 0 0 160 160;" xml:space="preserve">
<style type="text/css">
	.st0{fill:#FADE8E;}
	.st1{fill:#49A5E6;}
	.st2{fill:#EB5E62;}
	.st3{fill:#F7B27F;}
	.st4{fill:#D8BE75;}
	.st5{fill:#004481;}
	.st6{fill:#2A86CA;}
	.st7{fill:#FFFFFF;}
	.st8{fill:#96DBDB;}
	.st9{fill:#FCE8B0;}
	.st10{fill:#6AABDA;}
	.st11{fill:#4D7CA7;}
	.st12{clip-path:url(#SVGID_2_);}
</style>
<g>
	<g>
		<g>
			<g>
				<path class="st0" d="M131.6,123.5L131.6,123.5c-0.5,0.6-0.5,1.5,0.1,2c0.6,0.5,1.5,0.5,2-0.1v0c0.5-0.6,0.5-1.5-0.1-2
					C133,122.8,132.1,122.9,131.6,123.5L131.6,123.5z M136.1,117.9L136.1,117.9c-0.5,0.6-0.3,1.5,0.3,2c0.6,0.5,1.5,0.3,2-0.3h0
					c0.5-0.6,0.3-1.5-0.3-2C137.4,117.1,136.6,117.2,136.1,117.9L136.1,117.9z M140,111.8L140,111.8c-0.4,0.7-0.2,1.6,0.5,1.9
					c0.7,0.4,1.6,0.2,1.9-0.5v0c0.4-0.7,0.2-1.6-0.5-1.9C141.2,110.9,140.4,111.1,140,111.8L140,111.8z M143.2,105.4L143.2,105.4
					c-0.3,0.7,0,1.6,0.7,1.9c0.7,0.3,1.6,0,1.9-0.7h0c0.3-0.7,0-1.6-0.7-1.9C144.4,104.3,143.5,104.7,143.2,105.4L143.2,105.4z
					 M145.7,98.6L145.7,98.6c-0.2,0.7,0.2,1.5,0.9,1.8c0.7,0.2,1.5-0.2,1.8-0.9c0.2-0.7-0.2-1.5-0.9-1.8
					C146.8,97.5,146,97.9,145.7,98.6z M147.5,91.7L147.5,91.7c-0.2,0.8,0.3,1.5,1.1,1.7c0.8,0.2,1.5-0.3,1.7-1.1v0
					c0.2-0.8-0.3-1.5-1.1-1.7C148.4,90.4,147.7,90.9,147.5,91.7L147.5,91.7z M148.6,84.6L148.6,84.6c-0.1,0.8,0.5,1.5,1.3,1.5
					c0.8,0.1,1.5-0.5,1.5-1.3c0.1-0.8-0.5-1.5-1.3-1.5C149.3,83.2,148.6,83.8,148.6,84.6z M148.9,77.4L148.9,77.4
					c0,0.8,0.7,1.4,1.4,1.4c0.8,0,1.4-0.7,1.4-1.4v0c0-0.8-0.7-1.4-1.4-1.4C149.5,75.9,148.9,76.6,148.9,77.4L148.9,77.4z
					 M148.4,70.2L148.4,70.2c0.1,0.8,0.8,1.3,1.6,1.2c0.8-0.1,1.3-0.8,1.2-1.6v0c-0.1-0.8-0.8-1.3-1.6-1.2
					C148.9,68.7,148.3,69.4,148.4,70.2L148.4,70.2z M147.2,63.1L147.2,63.1c0.2,0.8,0.9,1.2,1.7,1.1c0.8-0.2,1.2-0.9,1.1-1.7v0
					c-0.2-0.8-0.9-1.2-1.7-1.1C147.5,61.6,147,62.4,147.2,63.1L147.2,63.1z M145.3,56.2L145.3,56.2c0.3,0.7,1.1,1.1,1.8,0.9
					c0.7-0.3,1.1-1.1,0.9-1.8c-0.3-0.7-1.1-1.1-1.8-0.9C145.4,54.7,145,55.5,145.3,56.2z M142.6,49.5L142.6,49.5
					c0.3,0.7,1.2,1,1.9,0.7c0.7-0.3,1-1.2,0.7-1.9c-0.3-0.7-1.2-1-1.9-0.7C142.6,48,142.2,48.8,142.6,49.5z M139.2,43.2L139.2,43.2
					c0.4,0.7,1.3,0.9,2,0.5c0.7-0.4,0.9-1.3,0.5-2l0,0c-0.4-0.7-1.3-0.9-2-0.5C139,41.6,138.8,42.5,139.2,43.2L139.2,43.2z
					 M135.2,37.2L135.2,37.2c0.5,0.6,1.4,0.8,2,0.3c0.6-0.5,0.8-1.4,0.3-2l0,0c-0.5-0.6-1.4-0.8-2-0.3
					C134.9,35.7,134.7,36.6,135.2,37.2L135.2,37.2z"/>
			</g>
			<g>
				<path class="st0" d="M28,125.4L28,125.4c0.5,0.6,1.4,0.6,2,0.1c0.6-0.5,0.6-1.4,0.1-2v0c-0.5-0.6-1.4-0.6-2-0.1
					C27.5,123.9,27.5,124.8,28,125.4L28,125.4z M23.3,119.5L23.3,119.5c0.5,0.6,1.3,0.8,2,0.3c0.6-0.5,0.8-1.3,0.3-2h0
					c-0.5-0.6-1.3-0.8-2-0.3C23,118,22.8,118.9,23.3,119.5L23.3,119.5z M19.3,113.2L19.3,113.2c0.4,0.7,1.3,0.9,1.9,0.5
					c0.7-0.4,0.9-1.3,0.5-1.9v0c-0.4-0.7-1.3-0.9-1.9-0.5C19.1,111.7,18.9,112.5,19.3,113.2L19.3,113.2z M15.9,106.5L15.9,106.5
					c0.3,0.7,1.2,1,1.9,0.7c0.7-0.3,1-1.2,0.7-1.9l0,0c-0.3-0.7-1.2-1-1.9-0.7C15.9,105,15.6,105.8,15.9,106.5L15.9,106.5z
					 M13.3,99.5L13.3,99.5c0.2,0.7,1,1.2,1.8,0.9c0.7-0.2,1.2-1,0.9-1.8c-0.2-0.7-1-1.2-1.8-0.9C13.4,97.9,13,98.7,13.3,99.5z
					 M11.4,92.2L11.4,92.2c0.2,0.8,0.9,1.3,1.7,1.1c0.8-0.2,1.3-0.9,1.1-1.7v0c-0.2-0.8-0.9-1.3-1.7-1.1
					C11.7,90.7,11.2,91.5,11.4,92.2L11.4,92.2z M10.3,84.8L10.3,84.8c0.1,0.8,0.8,1.4,1.5,1.3c0.8-0.1,1.4-0.8,1.3-1.5
					c-0.1-0.8-0.8-1.4-1.5-1.3C10.8,83.4,10.2,84,10.3,84.8z M10,77.3L10,77.3c0,0.8,0.6,1.4,1.4,1.4c0.8,0,1.4-0.6,1.4-1.4v0
					c0-0.8-0.6-1.4-1.4-1.4C10.7,75.9,10,76.6,10,77.3L10,77.3z M10.5,69.9L10.5,69.9c-0.1,0.8,0.5,1.5,1.2,1.6
					c0.8,0.1,1.5-0.5,1.6-1.2v0c0.1-0.8-0.5-1.5-1.2-1.6C11.3,68.5,10.6,69.1,10.5,69.9L10.5,69.9z M11.7,62.5L11.7,62.5
					c-0.2,0.8,0.3,1.5,1.1,1.7c0.8,0.2,1.5-0.3,1.7-1.1v0c0.2-0.8-0.3-1.5-1.1-1.7C12.7,61.2,11.9,61.7,11.7,62.5L11.7,62.5z
					 M13.8,55.3L13.8,55.3c-0.3,0.7,0.1,1.6,0.9,1.8c0.7,0.3,1.6-0.1,1.8-0.9c0.3-0.7-0.1-1.6-0.9-1.8C14.8,54.1,14,54.5,13.8,55.3z
					 M16.5,48.3L16.5,48.3c-0.3,0.7,0,1.6,0.7,1.9c0.7,0.3,1.6,0,1.9-0.7c0.3-0.7,0-1.6-0.7-1.9C17.7,47.3,16.9,47.6,16.5,48.3z
					 M20,41.7L20,41.7c-0.4,0.7-0.2,1.5,0.5,2c0.7,0.4,1.5,0.2,2-0.5l0,0c0.4-0.7,0.2-1.5-0.5-2C21.3,40.8,20.5,41,20,41.7L20,41.7z
					 M24.2,35.5L24.2,35.5c-0.5,0.6-0.3,1.5,0.3,2c0.6,0.5,1.5,0.3,2-0.3l0,0c0.5-0.6,0.3-1.5-0.3-2C25.6,34.8,24.7,34.9,24.2,35.5
					L24.2,35.5z"/>
			</g>
			<g>
				<path class="st0" d="M131.8,78.1c0,0.8,0.6,1.4,1.4,1.4s1.4-0.6,1.4-1.4c0-0.8-0.6-1.4-1.4-1.4S131.8,77.4,131.8,78.1
					 M131.8,77.9c0,0.8,0.6,1.4,1.4,1.4c0.8,0,1.4-0.6,1.4-1.4c0-0.8-0.6-1.4-1.4-1.4C132.4,76.5,131.8,77.1,131.8,77.9 M131.2,70.5
					c0.1,0.8,0.8,1.3,1.6,1.2c0.8-0.1,1.3-0.8,1.2-1.6c-0.1-0.8-0.8-1.3-1.6-1.2C131.6,69,131.1,69.7,131.2,70.5 M129.6,63.2
					c0.2,0.8,1,1.2,1.8,0.9c0.8-0.2,1.2-1,0.9-1.8h0c-0.2-0.8-1-1.2-1.8-0.9C129.8,61.7,129.4,62.5,129.6,63.2 M126.9,56.3
					c0.3,0.7,1.2,1,1.9,0.7c0.7-0.3,1-1.2,0.7-1.9c-0.3-0.7-1.2-1-1.9-0.7C126.9,54.7,126.6,55.6,126.9,56.3 M123.2,49.8
					c0.4,0.7,1.3,0.8,2,0.4c0.7-0.4,0.8-1.3,0.4-2c-0.4-0.7-1.3-0.8-2-0.4C123,48.3,122.8,49.2,123.2,49.8 M118.7,44
					c0.5,0.6,1.4,0.6,2,0.1c0.6-0.5,0.6-1.4,0.1-2c-0.5-0.6-1.4-0.6-2-0.1C118.2,42.5,118.1,43.4,118.7,44 M113.3,38.8
					c0.6,0.5,1.5,0.4,2-0.2c0.5-0.6,0.4-1.5-0.2-2c-0.6-0.5-1.5-0.4-2,0.2C112.6,37.4,112.7,38.3,113.3,38.8 M107.2,34.5
					c0.7,0.4,1.5,0.2,2-0.5s0.2-1.5-0.5-2c-0.7-0.4-1.5-0.2-2,0.5C106.3,33.2,106.5,34.1,107.2,34.5 M100.6,31.1
					c0.7,0.3,1.6,0,1.9-0.8c0.3-0.7,0-1.6-0.8-1.9c-0.7-0.3-1.6,0-1.9,0.8C99.5,29.9,99.8,30.8,100.6,31.1 M93.5,28.7
					c0.8,0.2,1.5-0.3,1.7-1c0.2-0.8-0.3-1.5-1-1.7c-0.8-0.2-1.5,0.3-1.7,1C92.3,27.7,92.7,28.5,93.5,28.7 M86.2,27.4
					c0.8,0.1,1.5-0.5,1.6-1.3c0.1-0.8-0.5-1.5-1.3-1.6c-0.8-0.1-1.5,0.5-1.6,1.3C84.8,26.6,85.4,27.3,86.2,27.4 M78.7,27.1
					c0.8,0,1.4-0.7,1.4-1.5c0-0.8-0.7-1.4-1.5-1.4c-0.8,0-1.4,0.7-1.4,1.5C77.3,26.6,77.9,27.2,78.7,27.1 M71.3,28
					c0.8-0.1,1.3-0.9,1.1-1.7c-0.1-0.8-0.9-1.3-1.7-1.1c-0.8,0.1-1.3,0.9-1.1,1.7C69.8,27.6,70.6,28.1,71.3,28 M64.1,29.9
					c0.7-0.3,1.1-1.1,0.9-1.8c-0.3-0.7-1.1-1.1-1.8-0.9c-0.7,0.3-1.1,1.1-0.9,1.8C62.6,29.7,63.4,30.1,64.1,29.9 M57.3,32.8
					c0.7-0.4,1-1.2,0.6-1.9c-0.4-0.7-1.2-1-1.9-0.6c-0.7,0.4-1,1.2-0.6,1.9C55.7,32.9,56.6,33.2,57.3,32.8 M51,36.7
					c0.6-0.5,0.8-1.3,0.3-2c-0.5-0.6-1.4-0.8-2-0.3c-0.6,0.5-0.8,1.3-0.3,2C49.4,37,50.3,37.2,51,36.7 M45.2,41.5
					c0.6-0.5,0.6-1.4,0-2c-0.5-0.6-1.4-0.6-2,0c-0.6,0.5-0.6,1.4,0,2C43.8,42,44.7,42,45.2,41.5 M40.3,47c0.5-0.6,0.4-1.5-0.3-2
					c-0.6-0.5-1.5-0.4-2,0.3c-0.5,0.6-0.4,1.5,0.3,2C38.9,47.8,39.8,47.7,40.3,47 M36.2,53.3c0.4-0.7,0.1-1.6-0.5-1.9
					c-0.7-0.4-1.6-0.1-1.9,0.5c-0.4,0.7-0.1,1.6,0.5,1.9C34.9,54.2,35.8,53.9,36.2,53.3 M33,60c0.3-0.7-0.1-1.6-0.8-1.8
					c-0.7-0.3-1.6,0.1-1.8,0.8c-0.3,0.7,0.1,1.6,0.8,1.8C31.9,61.1,32.7,60.8,33,60 M30.9,67.2c0.2-0.8-0.3-1.5-1.1-1.7
					c-0.8-0.2-1.5,0.3-1.7,1.1c-0.2,0.8,0.3,1.5,1.1,1.7C30,68.4,30.7,67.9,30.9,67.2 M29.8,74.5c0.1-0.8-0.5-1.5-1.3-1.5
					c-0.8-0.1-1.5,0.5-1.5,1.3c-0.1,0.8,0.5,1.5,1.3,1.5C29.1,75.9,29.8,75.3,29.8,74.5 M29.9,82c-0.1-0.8-0.7-1.4-1.5-1.3
					c-0.8,0.1-1.4,0.7-1.3,1.5c0.1,0.8,0.7,1.4,1.5,1.3C29.3,83.4,29.9,82.8,29.9,82 M30.9,89.3c-0.2-0.8-0.9-1.2-1.7-1.1
					c-0.8,0.2-1.3,0.9-1.1,1.7c0.2,0.8,0.9,1.2,1.7,1.1C30.6,90.9,31.1,90.1,30.9,89.3 M33.1,96.5c-0.3-0.7-1.1-1.1-1.8-0.8
					c-0.7,0.3-1.1,1.1-0.8,1.8c0.3,0.7,1.1,1.1,1.8,0.8C33,98,33.4,97.2,33.1,96.5 M36.3,103.2c-0.4-0.7-1.3-0.9-1.9-0.5
					c-0.7,0.4-0.9,1.3-0.5,1.9c0.4,0.7,1.3,0.9,1.9,0.5C36.4,104.8,36.7,103.9,36.3,103.2 M40.4,109.4c-0.5-0.6-1.4-0.7-2-0.3
					c-0.6,0.5-0.7,1.4-0.3,2c0.5,0.6,1.4,0.7,2,0.3C40.8,110.9,40.9,110,40.4,109.4 M45.4,114.9c-0.6-0.5-1.5-0.5-2,0
					c-0.5,0.6-0.5,1.5,0,2c0.6,0.5,1.5,0.5,2,0C46,116.4,45.9,115.5,45.4,114.9 M51.1,119.7c-0.6-0.5-1.5-0.3-2,0.3
					c-0.5,0.6-0.3,1.5,0.3,2c0.6,0.5,1.5,0.3,2-0.3C51.9,121,51.8,120.2,51.1,119.7 M57.5,123.6c-0.7-0.4-1.6-0.1-1.9,0.6
					c-0.4,0.7-0.1,1.6,0.6,1.9c0.7,0.4,1.6,0.1,1.9-0.6C58.4,124.8,58.2,123.9,57.5,123.6 M64.3,126.5c-0.7-0.3-1.6,0.1-1.8,0.9
					c-0.3,0.7,0.1,1.6,0.9,1.8c0.7,0.3,1.6-0.1,1.8-0.9C65.5,127.5,65.1,126.7,64.3,126.5 M71.5,128.4c-0.8-0.1-1.5,0.4-1.7,1.1
					c-0.1,0.8,0.4,1.5,1.1,1.7c0.8,0.1,1.5-0.4,1.7-1.1C72.8,129.2,72.3,128.5,71.5,128.4 M78.9,129.2c-0.8,0-1.4,0.6-1.5,1.4
					c0,0.8,0.6,1.4,1.4,1.5c0.8,0,1.4-0.6,1.5-1.4S79.7,129.2,78.9,129.2 M86.4,128.9c-0.8,0.1-1.3,0.8-1.3,1.6
					c0.1,0.8,0.8,1.3,1.6,1.3h0c0.8-0.1,1.3-0.8,1.3-1.6C87.9,129.4,87.2,128.8,86.4,128.9L86.4,128.9 M93.7,127.5
					c-0.8,0.2-1.2,1-1,1.7c0.2,0.8,1,1.2,1.7,1c0.8-0.2,1.2-1,1-1.7C95.3,127.8,94.5,127.3,93.7,127.5 M100.8,125.1
					c-0.7,0.3-1.1,1.1-0.8,1.9c0.3,0.7,1.1,1.1,1.9,0.8h0c0.7-0.3,1.1-1.1,0.7-1.9C102.3,125.1,101.5,124.8,100.8,125.1
					 M107.4,121.7c-0.7,0.4-0.9,1.3-0.5,2c0.4,0.7,1.3,0.9,2,0.5h0c0.7-0.4,0.9-1.3,0.5-2C108.9,121.5,108,121.3,107.4,121.7
					 M113.4,117.4c-0.6,0.5-0.7,1.4-0.2,2c0.5,0.6,1.4,0.7,2,0.2c0.6-0.5,0.7-1.4,0.2-2C114.9,116.9,114,116.9,113.4,117.4
					 M118.8,112.2c-0.5,0.6-0.5,1.5,0.1,2c0.6,0.5,1.5,0.5,2-0.1c0.5-0.6,0.5-1.5-0.1-2C120.2,111.6,119.3,111.6,118.8,112.2
					 M123.3,106.3c-0.4,0.7-0.3,1.5,0.4,2s1.5,0.3,2-0.4c0.4-0.7,0.3-1.5-0.4-2C124.7,105.5,123.8,105.6,123.3,106.3 M127,99.8
					c-0.3,0.7,0,1.6,0.7,1.9c0.7,0.3,1.6,0,1.9-0.7c0.3-0.7,0-1.6-0.7-1.9C128.2,98.8,127.3,99.1,127,99.8 M129.7,92.8
					c-0.2,0.8,0.2,1.5,1,1.8c0.8,0.2,1.5-0.2,1.8-1c0.2-0.8-0.2-1.5-1-1.8C130.7,91.7,129.9,92.1,129.7,92.8L129.7,92.8 M131.3,85.6
					c-0.1,0.8,0.4,1.5,1.2,1.6c0.8,0.1,1.5-0.4,1.6-1.2c0.1-0.8-0.4-1.5-1.2-1.6C132.1,84.3,131.4,84.8,131.3,85.6"/>
			</g>
			<g>
				<path class="st0" d="M116.5,78.1c0,0.8,0.6,1.4,1.4,1.4s1.4-0.6,1.4-1.4c0-0.8-0.6-1.4-1.4-1.4S116.5,77.4,116.5,78.1 M116.5,78
					c0,0.8,0.6,1.4,1.4,1.4c0.8,0,1.4-0.6,1.4-1.4c0-0.8-0.6-1.4-1.4-1.4C117.1,76.6,116.5,77.2,116.5,78 M115.7,70.8
					c0.2,0.8,0.9,1.3,1.7,1.1c0.8-0.2,1.3-0.9,1.1-1.7c-0.2-0.8-0.9-1.3-1.7-1.1C116,69.3,115.5,70,115.7,70.8 M113.5,63.9
					c0.3,0.7,1.1,1.1,1.9,0.7c0.7-0.3,1.1-1.1,0.7-1.9c-0.3-0.7-1.2-1.1-1.9-0.7C113.5,62.4,113.2,63.2,113.5,63.9 M110,57.6
					c0.5,0.6,1.3,0.8,2,0.3c0.6-0.5,0.8-1.3,0.3-2c-0.5-0.6-1.3-0.8-2-0.3C109.7,56.1,109.5,57,110,57.6L110,57.6 M105.3,52.2
					c0.6,0.5,1.5,0.5,2-0.1c0.5-0.6,0.5-1.5-0.1-2c-0.6-0.5-1.5-0.5-2,0.1C104.7,50.7,104.7,51.6,105.3,52.2 M99.5,47.8
					c0.7,0.4,1.5,0.2,2-0.5c0.4-0.7,0.2-1.5-0.5-2c-0.7-0.4-1.5-0.2-2,0.5C98.7,46.5,98.9,47.4,99.5,47.8 M93,44.6
					c0.7,0.3,1.6-0.1,1.8-0.8c0.3-0.7-0.1-1.6-0.8-1.8v0c-0.7-0.3-1.6,0.1-1.8,0.8C91.9,43.5,92.3,44.3,93,44.6 M86.1,42.8
					c0.8,0.1,1.5-0.4,1.6-1.2c0.1-0.8-0.4-1.5-1.2-1.6c-0.8-0.1-1.5,0.4-1.6,1.2C84.7,42,85.3,42.7,86.1,42.8 M78.8,42.5
					c0.8,0,1.4-0.7,1.3-1.5c0-0.8-0.7-1.4-1.5-1.3c-0.8,0-1.4,0.7-1.3,1.5C77.4,41.9,78.1,42.5,78.8,42.5 M71.7,43.6
					c0.8-0.2,1.2-1,1-1.7c-0.2-0.8-1-1.2-1.7-1c-0.8,0.2-1.2,1-1,1.7C70.2,43.3,70.9,43.8,71.7,43.6 M64.9,46.1
					c0.7-0.4,1-1.2,0.6-1.9c-0.4-0.7-1.2-1-1.9-0.6c-0.7,0.4-1,1.2-0.6,1.9C63.4,46.2,64.2,46.5,64.9,46.1L64.9,46.1 M58.8,50
					c0.6-0.5,0.7-1.4,0.2-2c-0.5-0.6-1.4-0.7-2-0.2h0c-0.6,0.5-0.7,1.4-0.2,2C57.3,50.3,58.2,50.5,58.8,50 M53.6,55
					c0.5-0.6,0.4-1.5-0.2-2c-0.6-0.5-1.5-0.4-2,0.2c-0.5,0.6-0.4,1.5,0.2,2C52.2,55.6,53.1,55.6,53.6,55 M49.5,60.9
					c0.4-0.7,0.1-1.6-0.6-1.9c-0.7-0.4-1.6-0.1-1.9,0.6c-0.4,0.7-0.1,1.6,0.6,1.9C48.2,61.8,49.1,61.6,49.5,60.9L49.5,60.9
					 M46.7,67.5c0.2-0.7-0.2-1.5-0.9-1.8c-0.8-0.2-1.5,0.2-1.8,0.9c-0.2,0.8,0.2,1.6,0.9,1.8C45.6,68.7,46.4,68.3,46.7,67.5
					 M45.2,74.6c0.1-0.8-0.5-1.5-1.3-1.6c-0.8-0.1-1.5,0.5-1.6,1.3c-0.1,0.8,0.5,1.5,1.3,1.6C44.5,76,45.2,75.4,45.2,74.6
					 M45.2,81.8c-0.1-0.8-0.8-1.4-1.6-1.3c-0.8,0.1-1.4,0.8-1.3,1.6c0.1,0.8,0.8,1.3,1.6,1.3C44.8,83.3,45.3,82.6,45.2,81.8
					 M46.7,88.9c-0.2-0.7-1-1.2-1.8-0.9c-0.8,0.2-1.2,1-0.9,1.8c0.2,0.7,1,1.2,1.8,0.9C46.5,90.4,46.9,89.6,46.7,88.9 M49.6,95.5
					c-0.4-0.7-1.2-0.9-1.9-0.5c-0.7,0.4-0.9,1.2-0.5,1.9c0.4,0.7,1.3,0.9,1.9,0.5C49.7,97.1,49.9,96.2,49.6,95.5 M53.7,101.4
					c-0.5-0.6-1.4-0.7-2-0.1c-0.6,0.5-0.7,1.4-0.1,2h0c0.5,0.6,1.4,0.7,2,0.1C54.2,102.9,54.2,102,53.7,101.4 M58.9,106.4
					c-0.6-0.5-1.5-0.4-2,0.3c-0.5,0.6-0.4,1.5,0.3,2c0.6,0.5,1.5,0.4,2-0.3C59.7,107.8,59.6,106.9,58.9,106.4 M65.1,110.2
					c-0.7-0.3-1.6-0.1-1.9,0.7c-0.3,0.7-0.1,1.6,0.7,1.9c0.7,0.3,1.6,0.1,1.9-0.7C66.1,111.4,65.8,110.6,65.1,110.2 M71.8,112.7
					c-0.8-0.2-1.5,0.3-1.7,1c-0.2,0.8,0.3,1.5,1,1.7c0.8,0.2,1.5-0.3,1.7-1C73.1,113.7,72.6,112.9,71.8,112.7 M79,113.8
					c-0.8,0-1.5,0.6-1.5,1.4c0,0.8,0.6,1.5,1.4,1.5c0.8,0,1.5-0.6,1.5-1.4C80.4,114.5,79.8,113.8,79,113.8 M86.2,113.4
					c-0.8,0.1-1.3,0.8-1.2,1.6c0.1,0.8,0.8,1.3,1.6,1.2h0c0.8-0.1,1.3-0.8,1.2-1.6S87,113.3,86.2,113.4 M93.2,111.6
					c-0.7,0.3-1.1,1.1-0.8,1.8c0.3,0.7,1.1,1.1,1.8,0.8c0.7-0.3,1.1-1.1,0.8-1.8C94.7,111.7,93.9,111.3,93.2,111.6 M99.7,108.4
					c-0.7,0.4-0.9,1.3-0.5,2c0.4,0.7,1.3,0.9,2,0.5c0.7-0.4,0.9-1.3,0.5-2C101.2,108.2,100.3,108,99.7,108.4 M105.4,104
					c-0.6,0.5-0.6,1.4,0,2c0.5,0.6,1.4,0.6,2,0v0c0.6-0.5,0.6-1.4,0-2C106.8,103.5,105.9,103.5,105.4,104 M110.1,98.5
					c-0.5,0.6-0.3,1.5,0.4,2c0.6,0.4,1.5,0.3,2-0.4c0.5-0.6,0.3-1.5-0.4-2C111.4,97.7,110.5,97.9,110.1,98.5 M113.6,92.2
					c-0.3,0.7,0,1.6,0.7,1.9c0.7,0.3,1.6,0,1.9-0.7c0.3-0.7,0-1.6-0.7-1.9C114.7,91.2,113.9,91.5,113.6,92.2 M115.7,85.3
					c-0.2,0.8,0.3,1.5,1.1,1.7c0.8,0.2,1.5-0.3,1.7-1.1c0.2-0.8-0.3-1.5-1.1-1.7C116.6,84.1,115.9,84.6,115.7,85.3"/>
			</g>
			<g>
				<path class="st0" d="M34.2,131.1c0.4,0,0.7-0.2,1-0.4c0.3-0.3,0.4-0.6,0.4-1c0-0.4-0.2-0.7-0.4-1c-0.3-0.3-0.6-0.4-1-0.4
					c-0.4,0-0.7,0.2-1,0.4c-0.3,0.3-0.4,0.6-0.4,1c0,0.4,0.2,0.7,0.4,1C33.5,130.9,33.9,131.1,34.2,131.1"/>
			</g>
			<g>
				<path class="st0" d="M30.1,32.2c0.4,0,0.7-0.2,1-0.4s0.4-0.6,0.4-1c0-0.4-0.2-0.7-0.4-1s-0.6-0.4-1-0.4c-0.4,0-0.7,0.2-1,0.4
					s-0.4,0.6-0.4,1c0,0.4,0.2,0.7,0.4,1S29.7,32.2,30.1,32.2"/>
			</g>
			<g>
				<path class="st0" d="M131.6,32.2c0.4,0,0.7-0.2,1-0.4c0.3-0.3,0.4-0.6,0.4-1c0-0.4-0.2-0.7-0.4-1c-0.3-0.3-0.6-0.4-1-0.4
					c-0.4,0-0.7,0.2-1,0.4c-0.3,0.3-0.4,0.6-0.4,1c0,0.4,0.2,0.7,0.4,1C130.9,32,131.2,32.2,131.6,32.2"/>
			</g>
			<g>
				<path class="st0" d="M127.5,131.1c0.4,0,0.7-0.2,1-0.4c0.3-0.3,0.4-0.6,0.4-1c0-0.4-0.2-0.7-0.4-1c-0.3-0.3-0.6-0.4-1-0.4
					c-0.4,0-0.7,0.2-1,0.4c-0.3,0.3-0.4,0.6-0.4,1c0,0.4,0.2,0.7,0.4,1C126.7,130.9,127.1,131.1,127.5,131.1"/>
			</g>
		</g>
		<g>
			<path class="st1" d="M67.5,87.7c0,1.5-1.2,2.7-2.7,2.7H34.6c-1.5,0-2.7-1.2-2.7-2.7v-0.1c0-1.5,1.2-2.7,2.7-2.7h30.2
				c1.5,0,2.7,1.2,2.7,2.7V87.7"/>
		</g>
		<g>
			<path class="st2" d="M46,77.8c0,1.5-1.2,2.7-2.7,2.7H13.1c-1.5,0-2.7-1.2-2.7-2.7v-0.1c0-1.5,1.2-2.7,2.7-2.7h30.2
				c1.5,0,2.7,1.2,2.7,2.7V77.8z"/>
		</g>
		<g>
			<path class="st1" d="M26.9,87.6c0,1.5-1.2,2.7-2.7,2.7h-0.6c-1.5,0-2.7-1.2-2.7-2.7v-0.1c0-1.5,1.2-2.7,2.7-2.7h0.6
				c1.5,0,2.7,1.2,2.7,2.7V87.6z"/>
		</g>
		<g>
			<path class="st2" d="M6.3,77.9c0,1.5-1.2,2.7-2.7,2.7H3.1c-1.5,0-2.7-1.2-2.7-2.7v-0.1c0-1.5,1.2-2.7,2.7-2.7h0.6
				c1.5,0,2.7,1.2,2.7,2.7V77.9z"/>
		</g>
		<g>
			<path class="st3" d="M138,87.6c0,1.5-1.2,2.7-2.7,2.7h-0.6c-1.5,0-2.7-1.2-2.7-2.7v-0.1c0-1.5,1.2-2.7,2.7-2.7h0.6
				c1.5,0,2.7,1.2,2.7,2.7V87.6z"/>
		</g>
		<g>
			<path class="st3" d="M128.7,87.7c0,1.5-1.2,2.7-2.7,2.7H58.9c-1.5,0-2.7-1.2-2.7-2.7v-0.1c0-1.5,1.2-2.7,2.7-2.7h67.2
				c1.5,0,2.7,1.2,2.7,2.7V87.7"/>
		</g>
		<g>
			<path class="st4" d="M159,77.8c0,1.5-1.2,2.7-2.7,2.7H58.1c-1.5,0-2.7-1.2-2.7-2.7v-0.1c0-1.5,1.2-2.7,2.7-2.7h98.2
				c1.5,0,2.7,1.2,2.7,2.7V77.8z"/>
		</g>
		<g>
			<path class="st5" d="M109.8,128.1c0,2.6-2.1,4.6-3.9,4.6H60.6c-3.5,0-5.6-2.1-5.6-4.6V35.4c0-2.6,2.1-4.6,4.8-4.6H105
				c2.6,0,4.8,2.1,4.8,4.6V128.1"/>
		</g>
		<g>
			<path class="st6" d="M106.4,128.1c0,2.6-2.1,4.6-4.8,4.6H56.3c-2.6,0-4.8-2.1-4.8-4.6V35.4c0-2.5,2.1-4.6,4.8-4.6h45.4
				c2.6,0,4.8,2.1,4.8,4.6V128.1"/>
		</g>
		<g>
			<polyline class="st7" points="106.5,118.3 51.5,118.3 51.5,43.9 106.5,43.9 106.5,118.3 			"/>
		</g>
		<g>
			<path class="st5" d="M82.4,125.8c0,2.3-1.8,4.2-4,4.2c-2.2,0-4-1.9-4-4.2c0-2.3,1.8-4.2,4-4.2C80.6,121.6,82.4,123.5,82.4,125.8"
				/>
		</g>
		<g>
			<path class="st5" d="M85.2,34.7c0,0.7-0.6,1.3-1.2,1.3H72.7c-0.7,0-1.2-0.6-1.2-1.3c0-0.7,0.6-1.3,1.2-1.3H84
				C84.6,33.4,85.2,34,85.2,34.7"/>
		</g>
		<g>
			<path class="st8" d="M52.7,32.2c-0.7,0.9-1.2,2.1-1.2,3v0.1c0-1.2,0.5-2.3,1.2-3.1C52.7,32.3,52.7,32.3,52.7,32.2 M85.5,30.8
				H55.2c0,0,0,0,0,0c0,0,0.1,0.1,0.1,0.1c0.3-0.1,0.7-0.1,1-0.1H85.5"/>
		</g>
		<g>
			<path class="st9" d="M55.1,30.8c-0.9,0-1.8,0.6-2.5,1.4c0,0,0,0.1,0,0.1c0.7-0.7,1.5-1.2,2.5-1.4C55.2,30.9,55.2,30.8,55.1,30.8"
				/>
		</g>
		<g>
			<path class="st10" d="M85.5,30.8H56.3c-0.3,0-0.7,0-1,0.1c-1,0.2-1.9,0.7-2.5,1.4c-0.8,0.8-1.2,1.9-1.2,3.1v8.4h21.9l7.3-7.8
				h-7.9c-0.7,0-1.2-0.6-1.2-1.3c0-0.7,0.6-1.3,1.2-1.3h10.4L85.5,30.8"/>
		</g>
		<g>
			<polyline class="st7" points="73.4,43.9 51.5,43.9 51.5,67.3 73.4,43.9 			"/>
		</g>
		<g>
			<path class="st11" d="M83.1,33.4H72.7c-0.7,0-1.2,0.6-1.2,1.3c0,0.7,0.6,1.3,1.2,1.3h7.9L83.1,33.4"/>
		</g>
		<g>
			<path class="st9" d="M60.6,132.7c0,0-0.1,0.1-0.1,0.1h2.6c0,0-0.1-0.1-0.1-0.1L60.6,132.7C60.6,132.7,60.6,132.7,60.6,132.7"/>
		</g>
		<g>
			<path class="st6" d="M69.9,83.4H89v-3.6H69.9V83.4z M80.2,75.4L80.2,75.4l3.8-3.6H71.3c-5.5,0-10,4.5-10,10c0,4.8,3.4,8.8,8,9.8
				l3.6-3.4h-1.5c-3.5,0-6.4-2.9-6.4-6.4c0-3.5,2.9-6.4,6.4-6.4H80.2 M85.1,75.4H87c3.5,0,6.4,2.9,6.4,6.4c0,3.5-2.9,6.4-6.4,6.4
				h-9.3l-3.8,3.6h13c5.5,0,10-4.5,10-10c0-4.9-3.6-9-8.3-9.8L85.1,75.4z"/>
		</g>
		<g>
			<defs>
				<path id="SVGID_1_" d="M69.9,83.4H89v-3.6H69.9V83.4 M80.2,75.4l3.8-3.6H71.3c-5.5,0-10,4.5-10,10c0,4.8,3.4,8.8,8,9.8l3.6-3.4
					h-1.5c-3.5,0-6.4-2.8-6.4-6.4c0-3.5,2.9-6.4,6.4-6.4H80.2 M85.1,75.4H87c3.5,0,6.4,2.8,6.4,6.4c0,3.5-2.9,6.4-6.4,6.4h-9.3
					l-3.8,3.6h13c5.5,0,10-4.5,10-10c0-4.9-3.6-9-8.3-9.8L85.1,75.4"/>
			</defs>
			<clipPath id="SVGID_2_">
				<use xlink:href="#SVGID_1_"  style="overflow:visible;"/>
			</clipPath>
			<g class="st12">
				<rect x="60.5" y="71" class="st6" width="37.3" height="21.5"/>
			</g>
		</g>
	</g>
</g>
</svg>
