<?xml version="1.0" encoding="UTF-8"?>
<svg width="160px" height="160px" viewBox="0 0 160 160" version="1.1" xmlns="http://www.w3.org/2000/svg" xmlns:xlink="http://www.w3.org/1999/xlink">
    <!-- Generator: Sketch 46.2 (44496) - http://www.bohemiancoding.com/sketch -->
    <title>Bconomy</title>
    <desc>Created with Sketch.</desc>
    <defs>
        <polygon id="path-1" points="0 114.477273 151.806818 114.477273 151.806818 0.485771284 0 0.485771284"></polygon>
        <polygon id="path-3" points="0.0996047078 0.322833615 0.0996047078 42.7242364 33.5564616 42.7242364 33.5564616 0.322833615 0.0996047078 0.322833615"></polygon>
        <polygon id="path-5" points="0.0996047078 0.128582996 0.0996047078 32.5255167 33.5564616 32.5255167 33.5564616 0.128582996 0.0996047078 0.128582996"></polygon>
        <polygon id="path-7" points="0.0996047078 0.516810138 0.0996047078 22.9267218 33.5564616 22.9267218 33.5564616 0.516810138 0.0996047078 0.516810138"></polygon>
        <polygon id="path-9" points="36.0449667 0.487883333 0.5913 0.487883333 0.5913 81.9334358 36.0449667 81.9334358 36.0449667 0.487883333"></polygon>
    </defs>
    <g id="Page-1" stroke="none" stroke-width="1" fill="none" fill-rule="evenodd">
        <g id="Bconomy">
            <g id="illustration-bconomy" transform="translate(7.000000, 7.000000)">
                <g id="Page-1" transform="translate(14.102273, 28.204545)">
                    <g id="Group-22">
                        <path d="M105.660521,24.0977688 C68.3130075,10.2968975 54.9540075,97.2584372 1.51800746,79.952381" id="Stroke-3" stroke="#5BBDFF" stroke-width="3" stroke-linecap="round"></path>
                        <path d="M106.181818,19.9090909 C70.5113636,6.63636364 52.2613636,82.9545455 1.51800746,65.8501082" id="Stroke-3-Copy" stroke="#004480" stroke-width="3" stroke-linecap="round"></path>
                        <path d="M107.029758,29.60885 C104.164252,28.8614164 99.9106251,36.4054081 97.1562422,36.3418096 C66.5210191,35.6349579 62.2831799,68.6068352 43.7202422,86.882617 C23.0745149,107.208693 0.910719464,93.2775961 0.910719464,93.2775961" id="Stroke-5" stroke="#2A85C9" stroke-width="3" stroke-linecap="round"></path>
                        <path d="M109.335278,65.9017191 C112.246326,66.6715636 108.350963,68.1252433 107.579784,71.033814 C106.808605,73.935722 106.540818,76.4209085 106.540818,76.4209085 L81.8819259,69.9066066 C78.9702712,69.1385791 77.2342084,66.1609587 78.0072087,63.252388 C78.7777801,60.3498742 81.7635166,58.6181784 84.6763858,59.3849944 L109.335278,65.9017191 Z" id="Fill-7" fill="#DC905E"></path>
                        <path d="M108.198549,64.6577933 C110.220008,66.8813175 106.157658,65.990333 103.926705,68.0109477 C101.695752,70.030351 100.118783,71.9716191 100.118783,71.9716191 L82.9743278,53.1307194 C80.9486176,50.9065895 81.1168196,47.4637915 83.3471653,45.4431768 C85.5775111,43.4237735 89.026562,43.5909466 91.0534867,45.8162879 L108.198549,64.6577933 Z" id="Fill-9" fill="#DC905E"></path>
                        <path d="M108.731634,63.6291333 C109.386225,66.5601149 106.297867,63.7805582 103.356458,64.4371369 C100.41687,65.0918984 98.0839033,66.0004482 98.0839033,66.0004482 L92.5253448,41.1661484 C91.8677177,38.2345611 93.7203681,35.3259904 96.6605626,34.6694118 C99.600757,34.0140445 102.516662,35.8614291 103.17429,38.7942278 L108.731634,63.6291333 Z" id="Fill-11" fill="#DC905E"></path>
                        <path d="M110.944066,34.5377932 C107.932219,34.5377932 105.489343,36.9721009 105.489343,39.9763722 L105.489343,65.4224288 C105.489343,65.8082596 105.52942,66.1783422 105.607146,66.5405508 C105.566461,66.5453964 105.527599,66.5629617 105.489343,66.568413 C99.885243,67.2334714 87.5621727,73.7277852 88.4384017,87.6104259 C88.944222,95.6704739 95.677158,98.2016936 95.677158,98.2016936 L116.398789,98.2016936 L116.398789,65.4224288 L116.398789,55.473203 L116.398789,39.9763722 C116.398789,36.9721009 113.957128,34.5377932 110.944066,34.5377932" id="Fill-13" fill="#F9B17F"></path>
                        <path d="M112.15676,63.4150184 L108.169705,67.8172449 C106.487079,67.8172449 106.060805,66.3314632 106.060805,64.5040667 L106.060805,38.8878084 C106.060805,37.0573834 107.426459,35.5746302 109.109086,35.5746302 C110.790498,35.5746302 112.15676,37.0573834 112.15676,38.8878084 L112.15676,63.4150184 Z" id="Fill-15" fill="#DC905E"></path>
                        <mask id="mask-2" fill="white">
                            <use xlink:href="#path-1"></use>
                        </mask>
                        <g id="Clip-18"></g>
                        <polygon id="Fill-17" fill="#D93851" mask="url(#mask-2)" points="91.442355 105.873306 117.420145 105.873306 117.420145 98.2021176 91.442355 98.2021176"></polygon>
                        <path d="M108.911312,65.6899665 C108.911312,67.3435271 107.459432,68.6851522 105.669933,68.6851522 L74.8762234,68.6851522 C73.0867247,68.6851522 71.6354515,67.3435271 71.6354515,65.6899665 L71.6354515,5.20780736 C71.6354515,3.55424675 73.0867247,2.21322727 74.8762234,2.21322727 L105.669933,2.21322727 C107.459432,2.21322727 108.911312,3.55424675 108.911312,5.20780736 L108.911312,65.6899665 Z" id="Fill-19" fill="#5BBDFF" mask="url(#mask-2)"></path>
                        <path d="M108.911312,63.9627527 C108.911312,65.6163133 107.459432,66.9567271 105.669933,66.9567271 L74.8762234,66.9567271 C73.0867247,66.9567271 71.6354515,65.6163133 71.6354515,63.9627527 L71.6354515,3.47998795 C71.6354515,1.82521595 73.0867247,0.485407864 74.8762234,0.485407864 L105.669933,0.485407864 C107.459432,0.485407864 108.911312,1.82521595 108.911312,3.47998795 L108.911312,63.9627527 Z" id="Fill-20" fill="#2A85C9" mask="url(#mask-2)"></path>
                        <polygon id="Fill-21" fill="#FFFFFF" mask="url(#mask-2)" points="73.5740853 57.0672233 107.025021 57.0672233 107.025021 8.52885967 73.5740853 8.52885967"></polygon>
                    </g>
                    <g id="Group-32" transform="translate(73.829545, 14.102273)">
                        <g id="Group-25">
                            <mask id="mask-4" fill="white">
                                <use xlink:href="#path-3"></use>
                            </mask>
                            <g id="Clip-24"></g>
                            <path d="M37.9591112,0.875170131 C-10.1220248,-6.79906645 -23.9992685,68.0505369 -45.9706094,67.0534621 C-47.0541142,67.0042683 -47.9803166,66.8806838 -49.1950081,66.7025062 L-49.1950081,98.9874531 L78.3476055,98.9874531 L78.3476055,60.2989101 C58.9125406,27.9239744 61.0024174,4.55330838 37.9591112,0.875170131" id="Fill-23" fill="#E67D8D" mask="url(#mask-4)"></path>
                        </g>
                        <g id="Group-28" transform="translate(0.000000, 10.198720)">
                            <mask id="mask-6" fill="white">
                                <use xlink:href="#path-5"></use>
                            </mask>
                            <g id="Clip-27"></g>
                            <path d="M17.6130276,1.49975172 C-12.1469156,7.99933576 -13.66528,52.0272085 -44.3064819,42.1290511 C-46.4085057,41.4499364 -47.9803166,39.9381262 -49.8023539,38.6140924 L-49.8023539,89.3887181 L77.7402597,89.3887181 L77.7402597,23.9675311 C68.0227273,8.90882159 43.8442918,-4.22952902 17.6130276,1.49975172" id="Fill-26" fill="#F9DD8D" mask="url(#mask-6)"></path>
                        </g>
                        <g id="Group-31" transform="translate(0.000000, 19.797515)">
                            <mask id="mask-8" fill="white">
                                <use xlink:href="#path-7"></use>
                            </mask>
                            <g id="Clip-30"></g>
                            <path d="M25.1609387,0.672515572 C-10.0213876,4.1994728 -23.7613711,41.039048 -34.0139752,52.4196192 C-40.1955406,59.2815578 -44.3364241,61.1311256 -49.1951903,61.5522727 L-49.1951903,79.1900585 L78.3474233,79.1900585 L78.3474233,21.8432578 C78.3474233,18.5136758 46.1951451,-1.4362197 25.1609387,0.672515572" id="Fill-29" fill="#68CBCB" mask="url(#mask-8)"></path>
                        </g>
                    </g>
                    <g id="Group-39" transform="translate(71.340909, 0.000000)">
                        <mask id="mask-10" fill="white">
                            <use xlink:href="#path-9"></use>
                        </mask>
                        <g id="Clip-34"></g>
                        <polygon id="Stroke-33" stroke="#004480" mask="url(#mask-10)" points="2.5331 57.3153417 36.0449667 57.3153417 36.0449667 8.56594167 2.5331 8.56594167"></polygon>
                        <path d="M22.0188075,62.23469 C22.0188075,63.7573483 20.7844992,64.9898317 19.2636658,64.9898317 C17.7410075,64.9898317 16.5066992,63.7573483 16.5066992,62.23469 C16.5066992,60.7120317 17.7410075,59.47894 19.2636658,59.47894 C20.7844992,59.47894 22.0188075,60.7120317 22.0188075,62.23469" id="Fill-35" fill="#004480" mask="url(#mask-10)"></path>
                        <path d="M24.0642067,3.22872917 C24.0642067,3.76649583 23.6274233,4.20267083 23.0890483,4.20267083 L15.436215,4.20267083 C14.8984483,4.20267083 14.4622733,3.76649583 14.4622733,3.22872917 C14.4622733,2.69035417 14.8984483,2.25417917 15.436215,2.25417917 L23.0890483,2.25417917 C23.6274233,2.25417917 24.0642067,2.69035417 24.0642067,3.22872917" id="Fill-36" fill="#004480" mask="url(#mask-10)"></path>
                        <path d="M24.1550917,0.48764 L3.44925,0.48764 C2.16019167,0.48764 0.5913,1.99204833 0.5913,3.23244 L0.5913,24.09219 L24.1550917,0.48764 Z" id="Fill-37" fill="#FFFFFF" opacity="0.300000012" mask="url(#mask-10)"></path>
                        <path d="M35.0789333,76.4663442 C35.0789333,79.4836775 32.632825,81.9334358 29.614275,81.9334358 C26.5963333,81.9334358 24.150225,79.4836775 24.150225,76.4663442 L24.150225,50.9114775 C24.150225,47.8947525 26.5963333,45.4462108 29.614275,45.4462108 C32.632825,45.4462108 35.0789333,47.8947525 35.0789333,50.9114775 L35.0789333,76.4663442 Z" id="Fill-38" fill="#F9B17F" mask="url(#mask-10)"></path>
                    </g>
                </g>
            </g>
        </g>
    </g>
</svg>