<svg version="1.1" xmlns="http://www.w3.org/2000/svg" xmlns:xlink="http://www.w3.org/1999/xlink" x="0px" y="0px" viewBox="0 0 62 74" style="enable-background:new 0 0 62 74;" xml:space="preserve" width="62px" height="74px">
<style type="text/css">
	.st0{fill:#2D84C5;}
	.st1{fill:#194680;}
	.st2{fill:#004481;}
</style>
<title>Find a Branch</title>
<desc>Created with Sketch.</desc>
<g transform="translate(-895.000000, -249.000000)">
	<g id="Find-a-Branch" transform="translate(866.000000, 229.000000)">
		<path id="Combined-Shape" class="st0" d="M59.7,20.5l0.7,0c9.9,0,17.7,6.7,17.7,15.9c0,12.3-17.7,28.5-17.7,28.5
			c-0.3,0.2-0.6,0.2-0.9,0c0,0-17.6-16.3-17.6-28.6C41.9,27,49.6,20.5,59.7,20.5z M60,45.2c4.2,0,7.5-3.4,7.5-7.5s-3.4-7.5-7.5-7.5
			s-7.5,3.4-7.5,7.5S55.8,45.2,60,45.2z"/>
		<path class="st1" d="M57.7,44.8c0.7,0.2,1.5,0.4,2.3,0.4c4.2,0,7.5-3.4,7.5-7.5c0-0.8-0.1-1.6-0.4-2.3l8-8c1.9,2.6,3,5.8,3,9
			c0,12.3-17.7,28.5-17.7,28.5c-0.3,0.2-0.6,0.2-0.9,0c-3.7-3.6-7.2-7.5-10.3-11.7L57.7,44.8z"/>
	</g>
</g>
<g>
	<path class="st2" d="M44.4,54.2l-5.3,10.2c-0.1,0.2-0.4,0.2-0.6,0l-5.3-10.2C33.1,54.1,33,54,32.9,54h-2.6c-0.2,0-0.3,0.2-0.2,0.3
		l8.4,15.7c0.1,0.2,0.4,0.2,0.5,0l8.4-15.7c0.1-0.2,0-0.3-0.2-0.3h-2.6C44.6,54,44.5,54.1,44.4,54.2"/>
	<path class="st2" d="M47.5,67.8l5.3-10.2c0.1-0.2,0.4-0.2,0.6,0l5.3,10.2c0.1,0.1,0.2,0.2,0.3,0.2h2.6c0.2,0,0.3-0.2,0.2-0.3
		l-8.4-15.7c-0.1-0.2-0.4-0.2-0.5,0l-8.4,15.7c-0.1,0.2,0,0.3,0.2,0.3h2.6C47.3,67.9,47.4,67.9,47.5,67.8"/>
	<path class="st2" d="M11,61.5c1.1-0.6,1.8-1.8,1.8-3.2c0-2.5-2-4.2-4.8-4.2H0c-0.2,0-0.3,0.1-0.3,0.3V70c0,0.2,0.1,0.3,0.3,0.3h7.7
		c3.8,0,5.8-1.6,5.8-4.9C13.5,62.3,11,61.5,11,61.5 M2.7,56.4h4.7c1.7,0,2.6,0.7,2.6,2.1c0,1.4-0.9,2.1-2.6,2.1H2.7
		c-0.2,0-0.3-0.1-0.3-0.3v-3.6C2.4,56.5,2.6,56.4,2.7,56.4 M7.5,67.9l-4.8,0c-0.2,0-0.3-0.1-0.3-0.3l0-4.3c0-0.2,0.1-0.3,0.3-0.3
		h4.8c2.3,0,3.3,0.7,3.3,2.5C10.9,67.3,9.9,67.9,7.5,67.9"/>
	<path class="st2" d="M27.4,61.5c1.1-0.6,1.8-1.8,1.8-3.2c0-2.5-2-4.2-4.8-4.2h-8c-0.2,0-0.3,0.1-0.3,0.3V70c0,0.2,0.1,0.3,0.3,0.3
		h7.6c3.8,0,5.8-1.6,5.8-4.9C30,62.3,27.4,61.5,27.4,61.5 M19.1,56.4h4.7c1.7,0,2.6,0.7,2.6,2.1c0,1.4-0.9,2.1-2.6,2.1h-4.7
		c-0.2,0-0.3-0.1-0.3-0.3v-3.6C18.8,56.5,19,56.4,19.1,56.4 M24,67.9l-4.8,0c-0.2,0-0.3-0.1-0.3-0.3v-4.3c0-0.2,0.1-0.3,0.3-0.3H24
		c2.3,0,3.3,0.7,3.3,2.5C27.3,67.3,26.3,67.9,24,67.9"/>
</g>
</svg>
